<?xml version="1.0"?>
<svg xmlns="http://www.w3.org/2000/svg" xmlns:xlink="http://www.w3.org/1999/xlink" version="1.1" viewBox="0 0 192 192" width="512px" height="512px"><g transform=""><g fill="none" fill-rule="nonzero" stroke="none" stroke-width="1" stroke-linecap="butt" stroke-linejoin="miter" stroke-miterlimit="10" stroke-dasharray="" stroke-dashoffset="0" font-family="none" font-weight="none" font-size="none" text-anchor="none" style="mix-blend-mode: normal"><path d="M0,192v-192h192v192z" fill="#ffffff"/><g id="Layer_1"><g><g fill="#24afce"><g><g><g><g><g><g><path d="M2.9625,96c0,-51.375 41.6625,-93.0375 93.0375,-93.0375c51.375,0 93.0375,41.6625 93.0375,93.0375c0,51.375 -41.6625,93.0375 -93.0375,93.0375c-51.375,0 -93.0375,-41.6625 -93.0375,-93.0375z"/></g></g></g></g></g></g></g><g><path d="M153.0375,77.55l-56.2875,-28.0875c-0.4875,-0.225 -1.0125,-0.225 -1.5,0l-56.325,28.0875c-0.6375,0.3 -1.0125,0.9 -1.0125,1.6125v11.1c0,0.6 0.3,1.1625 0.825,1.5c0.525,0.3375 1.1625,0.375 1.6875,0.1125l55.575,-27.75l55.5375,27.75c0.225,0.1125 0.4875,0.1875 0.75,0.1875c0.3375,0 0.675,-0.075 0.9375,-0.2625c0.525,-0.3375 0.825,-0.9 0.825,-1.5v-11.175c0,-0.675 -0.375,-1.3125 -1.0125,-1.575z" fill="#ffffff"/><g fill="#ffffff"><path d="M142.6875,92.175l-46.6875,-23.25l-46.6875,23.25v43.125h25.875v-33.075h17.8125v33.075h49.6875z"/></g><rect x="263.7" y="272.6" transform="scale(0.375,0.375)" width="32" height="32" fill="#ff8985"/></g></g></g><path d="" fill="none"/><path d="" fill="none"/><path d="" fill="none"/><path d="" fill="none"/><path d="" fill="none"/><path d="" fill="none"/><path d="" fill="none"/><path d="" fill="none"/><path d="" fill="none"/><path d="" fill="none"/><path d="" fill="none"/><path d="M96,192c-53.01934,0 -96,-42.98066 -96,-96v0c0,-53.01934 42.98066,-96 96,-96h0c53.01934,0 96,42.98066 96,96v0c0,53.01934 -42.98066,96 -96,96z" fill="none"/><path d="M96,188.16c-50.89856,0 -92.16,-41.26144 -92.16,-92.16v0c0,-50.89856 41.26144,-92.16 92.16,-92.16h0c50.89856,0 92.16,41.26144 92.16,92.16v0c0,50.89856 -41.26144,92.16 -92.16,92.16z" fill="none"/><path d="M0,192v-192h192v192z" fill="none"/><path d="M3.84,188.16v-184.32h184.32v184.32z" fill="none"/></g></g></svg>
