<svg height="412pt" viewBox="0 -9 412.00005 412" width="412pt" xmlns="http://www.w3.org/2000/svg"><path d="m406 151.609375h-58.578125v236.230469h-282.84375v-236.230469h-58.578125l200-145.609375 114.171875 83.121094 23.25 16.929687 18.777344 13.679688zm-100.640625 105.3125c0-54.875-44.484375-99.363281-99.359375-99.363281s-99.359375 44.488281-99.359375 99.363281 44.484375 99.359375 99.359375 99.359375c54.875.003906 99.363281-44.484375 99.359375-99.359375zm0 0" fill="#f8ec7d"/><path d="m362.390625 46.988281v72.480469l-.191406.261719-18.777344-13.679688-23.25-16.929687v-42.132813zm0 0" fill="#6fe3ff"/><path d="m206 157.558594c46.265625.007812 86.402344 31.949218 96.796875 77.03125 10.394531 45.082031-11.707031 91.371094-53.300781 111.632812-41.589844 20.261719-91.664063 9.132813-120.757813-26.84375-29.089843-35.972656-29.5-87.265625-.988281-123.699218 18.832031-24.0625 47.691406-38.121094 78.25-38.121094zm0 0" fill="#e48e66"/><g fill="#63316d"><path d="m206 362.28125c49.273438-.003906 91.96875-34.15625 102.785156-82.230469 10.820313-48.074219-13.128906-97.222656-57.652344-118.332031-44.523437-21.109375-97.734374-8.539062-128.105468 30.261719-24.835938 31.734375-29.394532 74.855469-11.742188 111.082031 17.648438 36.230469 54.417969 59.214844 94.714844 59.21875zm-73.527344-162.902344c28.109375-35.921875 78.058594-46.28125 118.132813-24.496094 40.074219 21.785157 58.542969 69.335938 43.679687 112.460938-14.863281 43.121094-58.710937 69.195312-103.695312 61.660156-44.988282-7.535156-77.949219-46.46875-77.949219-92.082031-.039063-20.863281 6.945313-41.132813 19.832031-57.539063zm0 0"/><path d="m177.238281 295.320312c2.113281 2.476563 5.820313 2.8125 8.347657.757813l84.820312-69c2.519531-2.105469 2.878906-5.84375.804688-8.390625-2.070313-2.546875-5.804688-2.953125-8.375-.917969l-80.277344 65.300781-32.617188-38.195312c-2.148437-2.519531-5.9375-2.816406-8.457031-.664062-2.519531 2.152343-2.820313 5.9375-.667969 8.457031zm0 0"/><path d="m6 157.609375h52.578125v230.230469c0 3.3125 2.6875 6 6 6h282.84375c3.3125 0 6-2.6875 6-6v-230.230469h52.578125c2.597656 0 4.902344-1.671875 5.707031-4.144531.800781-2.46875-.074219-5.175782-2.175781-6.707032l-41.140625-29.953124v-69.816407c0-3.3125-2.6875-6-6-6h-42.21875c-3.316406 0-6 2.6875-6 6v30.34375l-104.640625-76.183593c-2.105469-1.53125-4.957031-1.53125-7.0625 0l-200 145.609374c-2.101562 1.53125-2.976562 4.238282-2.175781 6.707032.804687 2.472656 3.109375 4.144531 5.707031 4.144531zm320.171875-104.621094h30.21875v55.082031l-30.21875-22zm-120.171875-39.566406 152.667969 111.15625 28.890625 21.03125h-40.136719c-3.316406 0-6 2.6875-6 6v230.230469h-270.84375v-230.230469c0-3.3125-2.683594-6-6-6h-40.144531zm0 0"/></g></svg>